# xmcd
#
# Track frame offsets:
#	150
#	16212
#	35490
#	51062
#	66397
#	82960
#	97945
#	111120
#	128920
#	144590
#	158542
#	176615
#	191417
#	205497
#	221992
#
# Disc length: 3180 seconds
#
# Revision: 2
# Processed by: cddbd v1.5.2PL0 Copyright (c) Steve Scherf et al.
# Submitted via: audiograbber 1.83.01
#
DISCID=d00c6a0f
DTITLE=Various Artist - SC8309
DYEAR=2001
DGENRE=Karaoke
TTITLE0=Strait, George - King Of Broken Hearts, The
TTITLE1=Yearwood, Trisha - I Can't Understand
TTITLE2=Boy Howdy - True To His Word
TTITLE3=Asleep At The Wheel and Lyle Lovett - Blues For Dixie
TTITLE4=McEntire, Reba - Little Girl
TTITLE5=White, Bryan - Look At Me Now
TTITLE6=Brother Phelps - Were You Really Livin'
TTITLE7=Royal, Billy Joe - I'm Okay And Gettin' Better
TTITLE8=Bellamy Brothers, The - Can I Come To You
TTITLE9=Mandrell, Barbara - Ten Pound Hammer
TTITLE10=Carter, Carlene - Unbreakable Heart
TTITLE11=Jennings, Waylon - Cowboy Movies
TTITLE12=Archer and Park - Where There's Smoke
TTITLE13=Tucker, Tanya - Come In Out Of The World
TTITLE14=Parton, Dolly - More Where That Came From
EXTD=
EXTT0=
EXTT1=
EXTT2=
EXTT3=
EXTT4=
EXTT5=
EXTT6=
EXTT7=
EXTT8=
EXTT9=
EXTT10=
EXTT11=
EXTT12=
EXTT13=
EXTT14=
PLAYORDER=
